<?xml version="1.0" encoding="UTF-8" standalone="no"?>
<!DOCTYPE svg PUBLIC "-//W3C//DTD SVG 1.1//EN" "http://www.w3.org/Graphics/SVG/1.1/DTD/svg11.dtd">
<svg width="100%" height="100%" viewBox="0 0 1280 1257" version="1.1" xmlns="http://www.w3.org/2000/svg" xmlns:xlink="http://www.w3.org/1999/xlink" xml:space="preserve" xmlns:serif="http://www.serif.com/" style="fill-rule:evenodd;clip-rule:evenodd;stroke-linejoin:round;stroke-miterlimit:2;">
    <g transform="matrix(0.1,0,0,-0.1,0,1257)">
        <g transform="matrix(0.649334,0,0,0.747886,166.255036,1557.102229)">
            <path d="M4215,9835C4204,9819 4185,9797 4173,9787C4160,9777 4150,9764 4150,9758C4150,9752 4140,9737 4128,9725C4115,9713 4094,9686 4080,9666C4066,9646 4044,9614 4030,9595C4016,9576 3995,9546 3982,9528C3959,9496 3946,9477 3825,9312C3730,9181 3602,9008 3578,8977C3566,8961 3533,8916 3504,8877C3475,8837 3408,8747 3355,8675C3302,8604 3234,8511 3204,8470C3174,8429 3129,8368 3105,8335C3045,8256 2899,8057 2880,8029C2872,8017 2846,7982 2822,7951C2799,7920 2768,7879 2755,7860C2716,7806 2690,7769 2625,7680C2592,7635 2556,7585 2545,7570C2456,7446 2374,7333 2367,7325C2363,7320 2335,7281 2305,7240C2227,7132 2151,7028 2102,6964C2056,6902 2040,6862 2059,6850C2073,6842 2120,6848 2135,6861C2141,6865 2177,6878 2215,6888C2254,6899 2305,6916 2329,6925C2353,6933 2392,6943 2416,6947C2459,6953 2460,6952 2460,6925C2460,6904 2414,6823 2389,6800C2386,6797 2365,6767 2341,6733C2283,6649 2290,6633 2407,6590C2425,6583 2451,6563 2464,6545C2486,6516 2488,6510 2475,6500C2457,6485 2456,6457 2471,6428C2489,6395 2473,6341 2443,6329C2420,6320 2419,6318 2432,6302C2468,6260 2495,6201 2500,6155L2505,6105L2573,6104C2638,6103 2642,6104 2670,6137C2695,6165 2700,6180 2700,6220C2700,6271 2697,6276 2641,6313C2613,6330 2602,6348 2586,6398C2564,6466 2569,6479 2615,6480C2627,6481 2650,6502 2675,6537C2697,6568 2720,6598 2725,6604C2731,6610 2747,6631 2760,6650C2773,6669 2788,6690 2793,6695C2798,6701 2872,6800 2959,6917C3046,7033 3123,7135 3131,7144C3139,7152 3170,7193 3200,7235C3230,7277 3266,7326 3280,7345C3294,7364 3315,7394 3328,7412C3341,7430 3396,7505 3451,7579C3505,7653 3550,7716 3550,7719C3550,7722 3546,7731 3541,7739C3530,7756 3498,7749 3410,7708C3277,7646 3156,7591 3080,7557C3050,7544 3002,7523 2974,7510C2945,7498 2917,7491 2911,7494C2894,7505 2898,7545 2918,7571C2928,7584 2944,7609 2952,7625C2967,7655 3015,7738 3057,7808C3069,7828 3089,7863 3101,7884C3113,7906 3129,7930 3136,7938C3144,7945 3150,7955 3150,7960C3150,7964 3168,7997 3190,8031C3211,8066 3250,8131 3275,8175C3300,8219 3345,8296 3375,8345C3405,8395 3434,8444 3439,8455C3445,8466 3467,8504 3489,8540C3511,8576 3541,8625 3555,8650C3570,8675 3592,8713 3605,8735C3618,8757 3641,8795 3655,8820C3669,8845 3692,8883 3705,8905C3719,8927 3741,8965 3755,8990C3783,9040 3795,9060 3825,9104C3835,9121 3853,9150 3863,9169C3901,9240 3922,9276 3955,9330C3973,9360 4008,9418 4032,9459C4056,9499 4086,9552 4100,9575C4165,9686 4200,9749 4200,9756C4200,9760 4209,9774 4221,9786C4234,9800 4240,9818 4238,9836L4235,9865L4215,9835Z" style="fill-rule:nonzero;"/>
        </g>
        <g transform="matrix(0.664053,0,0,0.690646,-228.089407,1540.518046)">
            <path d="M7041,8154C7030,8140 7018,8119 7014,8107C6990,8026 6911,7879 6870,7840C6867,7837 6849,7815 6830,7790C6811,7765 6752,7693 6700,7629C6648,7565 6594,7498 6580,7480C6566,7462 6532,7420 6504,7386C6476,7353 6435,7302 6414,7274C6392,7246 6313,7146 6237,7051C6161,6957 6092,6864 6085,6846C6071,6813 6072,6811 6111,6754C6134,6722 6193,6644 6244,6581C6294,6517 6347,6449 6362,6430C6434,6337 6541,6204 6705,5999C6804,5876 6896,5760 6910,5740C6937,5702 7010,5551 7010,5533C7010,5513 7040,5490 7066,5490C7080,5490 7120,5513 7159,5543C7197,5571 7272,5627 7325,5665C7423,5735 7450,5757 7450,5766C7450,5782 7418,5830 7407,5830C7390,5830 7238,5951 7212,5986C7199,6002 7168,6042 7142,6076C7116,6110 7084,6152 7070,6170C7010,6249 6778,6543 6770,6550C6767,6553 6754,6569 6742,6587C6716,6624 6714,6655 6736,6664C6745,6667 6834,6670 6934,6670C7130,6670 7162,6664 7284,6606C7398,6551 7401,6557 7394,6840C7390,6986 7384,7059 7376,7068C7366,7078 7345,7072 7270,7039L7175,6998L6972,7003C6695,7009 6694,7011 6832,7170C6872,7217 6914,7269 6925,7284C6936,7299 6990,7367 7046,7434C7101,7501 7159,7574 7176,7595C7217,7651 7253,7683 7345,7747C7437,7811 7480,7849 7480,7865C7480,7880 7447,7907 7291,8023C7131,8142 7077,8180 7068,8180C7065,8180 7052,8168 7041,8154Z" style="fill-rule:nonzero;"/>
        </g>
        <g transform="matrix(0.664053,0,0,0.690646,-228.089407,1540.518046)">
            <path d="M4126,8015C4113,8001 4111,7969 4116,7787C4121,7541 4123,7538 4192,7559C4352,7607 4375,7609 4880,7616C5147,7620 5378,7620 5393,7616C5408,7613 5420,7603 5420,7594C5420,7565 5370,7486 5250,7325C5225,7292 5201,7258 5195,7249C5183,7229 5145,7176 5080,7085C5052,7047 5018,6999 5005,6980C4992,6961 4956,6909 4925,6865C4894,6821 4849,6756 4824,6720C4799,6684 4749,6612 4713,6560C4677,6508 4613,6416 4571,6355C4530,6295 4479,6220 4458,6190C4437,6160 4392,6095 4358,6045C4253,5892 4222,5846 4190,5805C4124,5716 4116,5678 4162,5661C4175,5657 4527,5657 4945,5662C5363,5667 5739,5668 5780,5665C5821,5662 5906,5650 5968,5638C6057,5621 6083,5619 6093,5629C6109,5645 6110,6034 6094,6050C6087,6057 6041,6053 5935,6034C5796,6010 5756,6008 5350,6001C5111,5997 4905,5996 4893,5998C4842,6007 4846,6014 5192,6520C5250,6605 5325,6716 5359,6765C5392,6815 5424,6862 5430,6870C5436,6878 5450,6900 5463,6919C5475,6938 5492,6963 5500,6975C5508,6987 5571,7080 5639,7181C5758,7356 5912,7583 5936,7618C6006,7719 6120,7907 6120,7920C6120,7930 6114,7942 6107,7948C6098,7956 5835,7960 5244,7963C4501,7966 4386,7969 4322,7983C4282,7992 4236,8007 4220,8015C4183,8034 4146,8034 4126,8015Z" style="fill-rule:nonzero;"/>
        </g>
        <g transform="matrix(0.664053,0,0,0.690646,-228.089407,1540.518046)">
            <path d="M11950,8011C11942,8006 11897,7991 11850,7978L11765,7955L10901,7950C10131,7946 10036,7943 10027,7929C10016,7912 10043,7865 10189,7647C10236,7577 10284,7504 10295,7486C10306,7467 10351,7400 10395,7336C10439,7272 10484,7204 10495,7185C10507,7167 10523,7143 10532,7133C10541,7123 10595,7043 10653,6955C10711,6867 10765,6788 10772,6780C10779,6771 10816,6717 10855,6660C10893,6602 10928,6554 10932,6552C10936,6550 10940,6544 10940,6540C10940,6535 10985,6465 11040,6384C11096,6303 11146,6227 11152,6216C11158,6204 11166,6193 11170,6190C11177,6184 11238,6091 11266,6042C11282,6013 11283,6008 11270,6000C11252,5989 10945,5989 10560,6000C10268,6008 10255,6010 10106,6075C10070,6090 10067,6090 10049,6074C10031,6058 10030,6041 10030,5841C10031,5723 10036,5618 10041,5608C10054,5583 10086,5585 10166,5618L10235,5645L11096,5642C11665,5640 11965,5643 11983,5649C12018,5662 12020,5707 11987,5747C11975,5762 11957,5786 11947,5800C11938,5814 11904,5863 11873,5909C11841,5955 11808,6003 11800,6015C11781,6043 11611,6292 11507,6442C11465,6504 11414,6578 11396,6605C11361,6657 11210,6874 11094,7040C11058,7092 11015,7153 10999,7175C10983,7197 10958,7231 10945,7250C10932,7269 10907,7303 10891,7325C10874,7347 10857,7372 10853,7380C10850,7388 10820,7430 10788,7474C10756,7517 10730,7560 10730,7569C10731,7614 10718,7613 11251,7606C11765,7599 11845,7593 11912,7559C11955,7537 12003,7534 12018,7553C12035,7573 12036,7985 12020,8005C12006,8022 11973,8024 11950,8011Z" style="fill-rule:nonzero;"/>
        </g>
        <g transform="matrix(0.664053,0,0,0.690646,-228.089407,1540.518046)">
            <path d="M7856,7967C7840,7955 7838,7945 7843,7906C7847,7881 7858,7843 7869,7822C7910,7740 7911,7725 7904,6581C7897,5555 7898,5484 7914,5471C7929,5459 7942,5462 8023,5498C8074,5520 8169,5562 8235,5590C8301,5618 8378,5652 8405,5665C8433,5678 8484,5702 8520,5718C8625,5766 8703,5801 8735,5815C8752,5822 8799,5844 8840,5863C8881,5882 8955,5917 9004,5940C9053,5962 9102,5980 9114,5978C9133,5975 9135,5968 9138,5898C9140,5834 9136,5806 9111,5733C9095,5684 9075,5632 9066,5615C9027,5542 9040,5539 9354,5542C9500,5544 9622,5548 9626,5553C9633,5560 9604,5649 9561,5755C9547,5790 9545,5861 9542,6290C9541,6562 9543,6990 9548,7240C9556,7673 9557,7697 9577,7740C9639,7871 9653,7913 9644,7939L9635,7965L9360,7968C9034,7971 9049,7976 9086,7867C9099,7827 9118,7779 9128,7760C9144,7728 9145,7671 9145,7059C9145,6293 9157,6374 9036,6316C8889,6245 8774,6193 8750,6185C8736,6181 8718,6172 8710,6165C8702,6158 8685,6149 8673,6146C8661,6142 8583,6108 8500,6070C8416,6031 8342,6000 8334,6000C8326,6000 8315,6011 8310,6025C8300,6051 8314,7531 8326,7625C8333,7688 8357,7776 8375,7804C8382,7816 8395,7852 8404,7885C8428,7978 8437,7974 8132,7978C7923,7981 7871,7979 7856,7967Z" style="fill-rule:nonzero;"/>
        </g>
        <g transform="matrix(0.649334,0,0,0.747886,166.255036,1557.102229)">
            <path d="M1915,6704C1849,6683 1828,6671 1795,6635C1753,6589 1719,6569 1634,6540C1559,6514 1485,6463 1388,6373C1342,6329 1296,6289 1286,6283C1261,6269 1273,6252 1315,6244C1358,6236 1434,6270 1510,6331C1647,6440 1722,6480 1790,6480C1817,6480 1841,6476 1844,6471C1850,6461 1793,6412 1748,6389C1733,6381 1697,6356 1668,6334C1611,6289 1438,6190 1417,6190C1395,6190 1369,6165 1375,6150C1388,6114 1418,6108 1477,6130C1508,6141 1545,6159 1559,6168C1573,6178 1596,6191 1610,6198C1624,6204 1647,6220 1662,6232C1694,6257 1736,6260 1801,6240C1857,6224 1884,6230 1940,6273C2014,6330 2016,6330 2180,6252C2240,6223 2272,6199 2342,6127C2416,6051 2433,6038 2453,6044C2500,6056 2495,6081 2435,6135C2358,6204 2330,6224 2293,6239C2275,6247 2260,6257 2260,6262C2260,6267 2240,6279 2216,6290C2192,6300 2169,6313 2166,6318C2163,6324 2143,6334 2122,6341C2076,6356 2031,6390 2031,6411C2030,6420 2039,6435 2049,6444C2066,6459 2079,6461 2129,6455C2195,6447 2208,6457 2163,6481C2147,6489 2124,6505 2110,6518C2091,6535 2073,6540 2033,6540C1940,6540 1928,6558 1985,6609C2016,6636 2028,6640 2080,6640C2159,6640 2161,6661 2086,6694C2004,6730 2001,6731 1915,6704Z" style="fill-rule:nonzero;"/>
        </g>
        <g transform="matrix(0.649334,0,0,0.747886,166.255036,1557.102229)">
            <path d="M1692,6171C1680,6168 1636,6134 1594,6096C1465,5978 1344,5897 1275,5884C1233,5876 1200,5846 1200,5815C1200,5788 1255,5731 1297,5714C1338,5697 1588,5696 1644,5713C1665,5720 1689,5734 1696,5746C1709,5764 1708,5770 1690,5793C1669,5819 1669,5821 1687,5850C1697,5867 1715,5883 1728,5887C1759,5894 1833,5885 1890,5867C1915,5859 1956,5847 1981,5840C2009,5833 2044,5813 2069,5789C2110,5752 2112,5749 2108,5698C2105,5651 2107,5644 2130,5633C2160,5618 2238,5616 2274,5630C2325,5649 2329,5762 2279,5787C2266,5794 2248,5804 2240,5809C2096,5907 2039,5941 2010,5946C1919,5961 1860,5995 1860,6033C1860,6045 1867,6074 1875,6097C1897,6161 1889,6171 1816,6168C1783,6167 1746,6169 1735,6172C1724,6175 1705,6175 1692,6171Z" style="fill-rule:nonzero;"/>
        </g>
        <g transform="matrix(0.649334,0,0,0.747886,166.255036,1557.102229)">
            <path d="M1997,6127C1990,6109 1998,6099 2040,6069C2074,6044 2199,5990 2223,5990C2229,5989 2247,5979 2263,5967C2283,5950 2293,5930 2301,5885C2316,5803 2322,5795 2361,5795C2393,5795 2396,5798 2413,5850C2431,5902 2431,5905 2413,5942C2403,5963 2392,5980 2387,5980C2383,5980 2361,5997 2337,6018C2270,6078 2265,6080 2202,6090C2169,6096 2122,6109 2098,6120C2048,6143 2004,6146 1997,6127Z" style="fill-rule:nonzero;"/>
        </g>
        <g transform="matrix(0.649334,0,0,0.747886,166.255036,1557.102229)">
            <path d="M1784,5768C1772,5763 1755,5744 1746,5727C1719,5675 1688,5625 1643,5561C1619,5527 1600,5497 1600,5493C1600,5489 1591,5477 1581,5466C1566,5449 1456,5288 1300,5055C1269,5009 1128,4801 1055,4695C1013,4635 971,4572 960,4555C950,4539 937,4521 933,4515C928,4510 893,4458 854,4400C740,4231 641,4086 633,4075C628,4070 605,4036 580,4000C556,3964 522,3916 506,3892C489,3868 466,3834 455,3816C444,3797 427,3772 417,3759C401,3738 368,3691 280,3565C231,3494 210,3458 204,3434C201,3421 189,3405 179,3399C156,3387 154,3360 175,3360C183,3360 190,3369 190,3380C190,3391 195,3400 202,3400C220,3400 293,3482 563,3805C701,3970 833,4128 856,4155C879,4183 1081,4426 1305,4695C1529,4965 1751,5232 1800,5290C2026,5560 2060,5603 2060,5617C2060,5645 1984,5706 1905,5744C1824,5783 1816,5784 1784,5768Z" style="fill-rule:nonzero;"/>
        </g>
        <g transform="matrix(1.247897,-0,-0,1,-2654.979551,80)">
            <path d="M4110,5025C4090,5001 4089,4827 4108,4808C4119,4797 4844,4795 8083,4792L12045,4790L12063,4811C12096,4851 12082,5009 12044,5024C12037,5027 10252,5032 8078,5036C4271,5043 4124,5042 4110,5025Z" style="fill-rule:nonzero;"/>
        </g>
        <g transform="matrix(130.698525,0,0,-132.779319,8224.277945,7613.530739)">
            <path d="M11.413,9.068C11.101,9.052 9.706,9.062 9.544,9.083C9.392,9.103 9.549,9.47 9.549,9.47L9.616,12.653L6.241,9.563C6.241,9.563 9.701,5.479 10.396,4.824C10.46,4.763 10.503,4.723 10.518,4.707C10.649,4.569 11.11,4.514 10.981,4.373C10.737,4.105 9.663,3.213 9.511,3.098C9.331,2.961 9.155,3.682 9.155,3.682L9.06,3.773C9.06,3.773 4.692,7.991 4.021,8.918C3.723,9.33 3.24,10.064 3.589,10.433C4.108,10.982 11.341,16.658 11.341,16.658C11.341,16.549 11.409,9.437 11.409,9.437C11.409,9.437 11.562,9.076 11.413,9.068ZM22.211,15.741C22.333,15.626 21.759,15.337 21.628,15.233C21.29,14.964 17.959,12.138 17.789,11.948C18.189,11.638 21.312,9.503 21.312,9.503C21.312,9.503 14.101,2.929 14.068,3.173C13.858,4.706 14.546,14.353 13.769,16.074C13.691,16.246 13.664,16.373 13.767,16.388C14.137,16.44 15.619,16.443 15.988,16.388C16.097,16.372 16.036,16.152 15.98,16.056C15.824,15.793 15.989,12.937 15.989,12.937C16.031,12.937 19.327,15.711 19.797,16.414C19.956,16.653 20.134,16.917 20.277,16.868C20.642,16.743 21.948,15.988 22.211,15.741ZM15.643,6.638L18.598,9.473C18.598,9.563 15.812,11.993 15.793,12.023C15.783,11.723 15.643,6.638 15.643,6.638ZM31.021,15.113C31.072,15.029 30.812,15.001 30.664,14.902C30.348,14.691 25.963,10.005 25.963,9.908C25.963,9.908 29.816,5.513 30.374,4.851C30.463,4.746 30.757,4.682 30.69,4.583C30.487,4.288 29.443,3.273 29.158,3.083C29.035,3.001 28.989,3.35 28.903,3.445C28.126,4.302 25.144,7.584 24.958,7.778C24.958,7.798 23.053,9.983 23.053,9.983C23.053,9.983 28.316,15.61 29.116,16.492C29.289,16.683 29.317,17.017 29.443,16.913C29.722,16.683 30.818,15.448 31.021,15.113Z" style="fill-rule:nonzero;"/>
        </g>
    </g>
</svg>
